<svg xmlns="http://www.w3.org/2000/svg" viewBox="0 0 800 600" fill="none">
  <!-- Background Gradient -->
  <defs>
    <linearGradient id="grad1" x1="0%" y1="0%" x2="100%" y2="100%">
      <stop offset="0%" style="stop-color:#10b981;stop-opacity:0.1" />
      <stop offset="100%" style="stop-color:#f59e0b;stop-opacity:0.1" />
    </linearGradient>
    <linearGradient id="grad2" x1="0%" y1="0%" x2="100%" y2="100%">
      <stop offset="0%" style="stop-color:#10b981;stop-opacity:1" />
      <stop offset="100%" style="stop-color:#059669;stop-opacity:1" />
    </linearGradient>
    <linearGradient id="grad3" x1="0%" y1="0%" x2="100%" y2="100%">
      <stop offset="0%" style="stop-color:#f59e0b;stop-opacity:1" />
      <stop offset="100%" style="stop-color:#d97706;stop-opacity:1" />
    </linearGradient>
  </defs>
  
  <!-- Background Circle -->
  <circle cx="400" cy="300" r="280" fill="url(#grad1)" />
  
  <!-- Mosque Silhouette -->
  <g transform="translate(200, 180)">
    <!-- Main Dome -->
    <path d="M200 100 Q200 50, 250 50 Q300 50, 300 100 L300 150 L200 150 Z" fill="url(#grad2)" />
    
    <!-- Side Domes -->
    <path d="M150 120 Q150 90, 175 90 Q200 90, 200 120 L200 150 L150 150 Z" fill="url(#grad2)" opacity="0.8" />
    <path d="M300 120 Q300 90, 325 90 Q350 90, 350 120 L350 150 L300 150 Z" fill="url(#grad2)" opacity="0.8" />
    
    <!-- Minarets -->
    <rect x="140" y="150" width="20" height="120" fill="url(#grad2)" rx="2" />
    <rect x="340" y="150" width="20" height="120" fill="url(#grad2)" rx="2" />
    
    <!-- Minaret Tops -->
    <circle cx="150" cy="145" r="15" fill="url(#grad3)" />
    <circle cx="350" cy="145" r="15" fill="url(#grad3)" />
    
    <!-- Crescent Moon on Dome -->
    <path d="M245 35 Q235 40, 235 50 Q240 45, 250 45 Q255 45, 255 50 Q255 40, 245 35" fill="url(#grad3)" />
    
    <!-- Main Building -->
    <rect x="180" y="150" width="140" height="120" fill="url(#grad2)" opacity="0.9" rx="4" />
    
    <!-- Door -->
    <path d="M230 220 Q230 200, 250 200 Q270 200, 270 220 L270 270 L230 270 Z" fill="#fff" opacity="0.3" />
    
    <!-- Windows -->
    <circle cx="210" cy="180" r="8" fill="#fff" opacity="0.3" />
    <circle cx="290" cy="180" r="8" fill="#fff" opacity="0.3" />
  </g>
  
  <!-- AI Brain Icon -->
  <g transform="translate(500, 200)">
    <circle cx="80" cy="80" r="70" fill="url(#grad3)" opacity="0.2" />
    
    <!-- Brain Outline -->
    <path d="M80 30 Q60 30, 50 45 Q40 60, 45 75 Q30 85, 35 105 Q40 120, 55 125 Q55 135, 65 140 L95 140 Q105 135, 105 125 Q120 120, 125 105 Q130 85, 115 75 Q120 60, 110 45 Q100 30, 80 30 Z" fill="none" stroke="url(#grad2)" stroke-width="3" />
    
    <!-- Neural Connections -->
    <g stroke="url(#grad2)" stroke-width="2" opacity="0.6">
      <line x1="60" y1="60" x2="50" y2="80" />
      <line x1="100" y1="60" x2="110" y2="80" />
      <line x1="80" y1="50" x2="80" y2="70" />
      <line x1="70" y1="90" x2="60" y2="110" />
      <line x1="90" y1="90" x2="100" y2="110" />
    </g>
    
    <!-- Neural Nodes -->
    <circle cx="60" cy="60" r="4" fill="url(#grad3)" />
    <circle cx="100" cy="60" r="4" fill="url(#grad3)" />
    <circle cx="80" cy="50" r="4" fill="url(#grad3)" />
    <circle cx="50" cy="80" r="4" fill="url(#grad3)" />
    <circle cx="110" cy="80" r="4" fill="url(#grad3)" />
    <circle cx="80" cy="70" r="4" fill="url(#grad3)" />
    <circle cx="60" cy="110" r="4" fill="url(#grad3)" />
    <circle cx="100" cy="110" r="4" fill="url(#grad3)" />
  </g>
  
  <!-- Book/Quran Icon -->
  <g transform="translate(100, 350)">
    <rect x="0" y="0" width="120" height="160" fill="url(#grad2)" rx="8" />
    <rect x="5" y="5" width="110" height="150" fill="#fff" opacity="0.9" rx="6" />
    
    <!-- Pages -->
    <line x1="60" y1="10" x2="60" y2="150" stroke="url(#grad2)" stroke-width="2" opacity="0.3" />
    
    <!-- Arabic-style decoration -->
    <circle cx="60" cy="60" r="30" fill="none" stroke="url(#grad3)" stroke-width="2" />
    <path d="M45 60 L55 70 L75 50" fill="none" stroke="url(#grad3)" stroke-width="2" stroke-linecap="round" />
    
    <!-- Lines representing text -->
    <line x1="20" y1="110" x2="100" y2="110" stroke="url(#grad2)" stroke-width="2" opacity="0.3" />
    <line x1="20" y1="125" x2="100" y2="125" stroke="url(#grad2)" stroke-width="2" opacity="0.3" />
    <line x1="20" y1="140" x2="80" y2="140" stroke="url(#grad2)" stroke-width="2" opacity="0.3" />
  </g>
  
  <!-- Stars/Decorative Elements -->
  <g fill="url(#grad3)" opacity="0.4">
    <circle cx="150" cy="100" r="3" />
    <circle cx="650" cy="150" r="4" />
    <circle cx="700" cy="400" r="3" />
    <circle cx="100" cy="250" r="2" />
    <circle cx="680" cy="480" r="3" />
    
    <!-- Star shapes -->
    <path d="M600 100 L605 110 L615 110 L607 116 L610 126 L600 120 L590 126 L593 116 L585 110 L595 110 Z" />
    <path d="M250 450 L253 456 L260 456 L254 460 L256 467 L250 463 L244 467 L246 460 L240 456 L247 456 Z" />
  </g>
  
  <!-- Crescent Moon Decoration -->
  <g transform="translate(600, 50)">
    <path d="M0 0 Q-10 15, 0 30 Q15 20, 15 15 Q15 10, 0 0" fill="url(#grad3)" opacity="0.6" />
  </g>
</svg>

